<!-- Generated by scripts/nameplates.ts. Noto Sans SC Black (SIL OFL 1.1). -->
<svg xmlns="http://www.w3.org/2000/svg" viewBox="0 -122.0 933.3 244.0"><path id="accent" d="M107.8-107.7L107.8-107.7L139.2-99.3Q136.4-92.3 133.3-85.4L133.3-85.4L229.3-85.4L229.3-57.2L118.2-57.2Q115.5-53.1 113.0-49.0L113.0-49.0L207.9-49.0L207.9-22.6L109.4-22.6L109.4-43.8Q102.3-34.0 95.3-26.5L95.3-26.5Q92.3-29.5 87.5-33.3Q82.8-37.2 77.7-41.0Q72.7-44.7 69.1-47.0L69.1-47.0Q81.2-57.7 91.5-74.1Q101.9-90.4 107.8-107.7ZM86.4 14.9L86.4-13.8L205.8-13.8Q205.6 6.9 205.5 24.0Q205.4 41.1 205.7 53.1Q206.1 65.2 207.2 71.8Q208.3 78.4 210.4 78.4L210.4 78.4Q212.2 78.4 212.9 70.3Q213.6 62.2 213.8 49.9L213.8 49.9Q217.9 55.6 223.1 61.3Q228.4 67.0 232.9 70.9L232.9 70.9Q232 83.6 229.5 92.1Q227.0 100.7 222.0 105.0Q217.0 109.3 207.9 109.3L207.9 109.3Q195.4 109.3 188.4 100.6Q181.5 91.8 178.4 75.4Q175.4 59.0 174.7 36.3L174.7 36.3Q174.2 26.0 174.0 14.9L174.0 14.9L86.4 14.9ZM48.6 105.0L20.0 83.6Q25.7 75.0 32.6 63.5Q39.5 52.0 46.8 38.9Q54.1 25.8 60.5 12.6L60.5 12.6L85.5 34.0Q80.0 45.8 73.9 58.0Q67.7 70.2 61.5 81.9Q55.2 93.6 48.6 105.0L48.6 105.0ZM12-18.5L12-18.5L29.5-43.1Q35.4-40.6 43.1-37.0Q50.7-33.3 58.0-29.8Q65.2-26.3 70.0-23.3L70.0-23.3L51.6 4.0Q47.3 0.8 40.3-3.2Q33.4-7.2 25.8-11.3Q18.1-15.4 12-18.5ZM25.2-80.0L25.2-80.0L43.6-104.1Q49.8-101.6 57.2-97.9Q64.6-94.3 71.6-90.4Q78.7-86.6 83.2-83.4L83.2-83.4L63.9-56.5Q59.8-59.9 53.1-64.2Q46.4-68.4 39.0-72.6Q31.6-76.8 25.2-80.0Z M257.1-43.8L257.1-75.6L310.5-75.6Q312.1-79.5 313.9-83.4L313.9-83.4Q319.2-96.6 323.3-110.0L323.3-110.0L362.4-100.2Q357.4-87.7 351.5-75.6L351.5-75.6L455.9-75.6L455.9-43.8L334.4-43.8Q328.7-34.2 323.0-25.6L323.0-25.6Q318.3-18.1 313.5-11.5L313.5-11.5L352.6-11.5L352.6-38.6L388.3-38.6L388.3-11.5L440.9-11.5L440.9 19.9L388.3 19.9L388.3 39.7L460.7 39.7L460.7 72.0L388.3 72.0L388.3 108.9L352.6 108.9L352.6 72.0L251.6 72.0L251.6 39.7L352.6 39.7L352.6 19.9L306.7 19.9Q301.0 19.9 295.1 20.4Q289.1 20.8 284.8 21.6Q280.5 22.4 279.4 23.5L279.4 23.5Q278.5 20.1 276.4 14.0Q274.4 7.8 271.9 1.1Q269.4-5.6 267.1-10.4L267.1-10.4Q272.3-12.2 276.3-16.2Q280.3-20.1 285.3-27.4L285.3-27.4Q288.0-30.8 292.8-39.2L292.8-39.2Q293.9-41.3 295.3-43.8L295.3-43.8L257.1-43.8Z"/><path id="ink" d="M501.7-14.0L501.7-96.3L683.7-96.3L683.7 73.8Q683.7 85.9 680.8 92.6Q678.0 99.3 670.7 103.2L670.7 103.2Q663.4 106.8 653.1 107.7Q642.7 108.6 628.2 108.6L628.2 108.6Q627.3 102.0 624.3 92.9L624.3 92.9Q622.5 87.2 620.4 82.7L620.4 82.7L577.2 82.7L577.2 95.0L547.4 95.0L547.4 19.2L635.5 19.2L635.5 78.6Q637.3 78.6 638.9 78.6L638.9 78.6L645.2 78.6Q648.2 78.6 649.3 77.5Q650.5 76.3 650.5 73.6L650.5 73.6L650.5-65.9L534.4-65.9L534.4-14.0Q534.4-0.1 533.4 16.5Q532.4 33.1 529.4 49.9Q526.5 66.8 520.9 82.2Q515.3 97.7 506.2 109.8L506.2 109.8Q503.5 106.6 498.5 102.5Q493.5 98.4 488.3 94.5Q483.0 90.7 479.4 88.8L479.4 88.8Q487.1 78.4 491.7 65.6Q496.2 52.9 498.4 39.1Q500.5 25.4 501.1 11.7Q501.7-1.9 501.7-14.0L501.7-14.0ZM545.1-25.8L545.1-50.6L575.4-50.6L575.4-63.1L606.6-63.1L606.6-50.6L638.4-50.6L638.4-25.8L606.6-25.8L606.6-16.0L642.3-16.0L642.3 9.7L540.8 9.7L540.8-16.0L575.4-16.0L575.4-25.8L545.1-25.8ZM577.2 43.8L577.2 58.1L605.0 58.1L605.0 43.8L577.2 43.8Z M789.5 107.7L789.5-99.1L910.1-99.1L910.1-94.8Q909.9-90.2 909.7-87.2L909.7-87.2Q909.0-63.1 906.9-51.0Q904.9-38.8 900.6-33.8Q896.2-28.8 890.2-27.0Q884.2-25.1 877.6-24.5L877.6-24.5Q871.4-24.0 862.1-24.0Q852.8-24.0 842.5-24.2L842.5-24.2Q842.3-30.1 839.9-37.9Q837.5-45.6 834.3-50.8L834.3-50.8Q840.5-50.4 845.9-50.2Q851.4-49.9 855.8-49.8Q860.3-49.7 862.8-49.7L862.8-49.7Q866.0-49.7 868.0-50.1Q870.1-50.4 871.7-52.0Q873.2-53.6 874.2-58.6L874.2-58.6Q874.6-62.2 875.1-68.6L875.1-68.6L822.3-68.6L822.3-18.8L887.6-18.8L893.3-19.7L914.4-13.5Q910.6 16.0 901.0 39.5L901.0 39.5Q896.0 51.8 889.4 62.2L889.4 62.2Q903.5 73.6 921.3 80.7L921.3 80.7Q917.6 83.8 913.3 88.8Q909.0 93.8 905.1 99.2Q901.2 104.5 898.7 108.9L898.7 108.9Q881.2 100.7 867.8 88.6L867.8 88.6Q854.4 101.1 836.4 110L836.4 110Q832.8 103.9 826.4 96.6L826.4 96.6Q824.3 94.3 822.3 92.0L822.3 92.0L822.3 107.7L789.5 107.7ZM709.2 39.5L702.4 5.6Q713.1 3.5 726.5 0.6L726.5 0.6Q729.2 0.1 732.0-0.6L732.0-0.6L732.0-33.3L705.3-33.3L705.3-65.4L732.0-65.4L732.0-107.3L765.9-107.3L765.9-65.4L785.4-65.4L785.4-33.3L765.9-33.3L765.9-8.1Q775.0-10.1 783.8-12.2L783.8-12.2L787.9 20.1Q777.0 22.9 765.9 25.6L765.9 25.6L765.9 72.9Q765.9 85.0 763.2 91.8Q760.6 98.6 753.6 102.5Q746.5 106.4 736.4 107.5Q726.3 108.6 712.6 108.4L712.6 108.4Q711.7 101.8 708.9 92.7Q706.0 83.6 702.8 77.0L702.8 77.0Q709.9 77.2 717.2 77.4Q724.5 77.5 727.0 77.5L727.0 77.5Q729.9 77.5 730.9 76.4Q732.0 75.4 732.0 72.7L732.0 72.7L732.0 34.0Q719.9 37.0 709.2 39.5L709.2 39.5ZM846.6 64.0L846.6 64.0Q841.6 57.0 837.5 49.3L837.5 49.3Q828.9 33.8 822.3 15.6L822.3 15.6L822.3 80.9Q833.0 75.4 841.6 68.4L841.6 68.4Q844.1 66.3 846.6 64.0ZM877.3 10.6L852.1 10.6Q857.1 22.4 863.9 33.1L863.9 33.1Q865.3 35.6 866.9 37.9L866.9 37.9Q871.4 29.2 874.8 19.2L874.8 19.2Q876.2 15.1 877.3 10.6L877.3 10.6Z"/></svg>
